<svg id="Livello_1" data-name="Livello 1" xmlns="http://www.w3.org/2000/svg" viewBox="0 0 176.03 366.21"><defs><style>.cls-1{fill:#2b4c9c;}</style></defs><path class="cls-1" d="M190.11,407.55V185.38Q128.1,233,106.62,233q-10.26,0-18.19-8.18a26.37,26.37,0,0,1-7.94-18.92q0-12.45,7.82-18.31t27.58-15.14q29.55-13.91,47.25-29.29a200.62,200.62,0,0,0,31.37-34.43q13.67-19,17.82-23.43T228,80.89a25,25,0,0,1,20.75,10q7.8,10,7.81,27.59V398q0,49.07-33.45,49.07-14.9,0-23.92-10T190.11,407.55Z" transform="translate(-80.49 -80.89)"/></svg>