<svg id="Livello_1" data-name="Livello 1" xmlns="http://www.w3.org/2000/svg" viewBox="0 0 250.49 360.11"><defs><style>.cls-1{fill:#21a637;}</style></defs><path class="cls-1" d="M160.57,383.38H288q19,0,29.06,7.81t10,21.24a28.23,28.23,0,0,1-7.94,20.27q-7.93,8.3-24.05,8.3H115.41q-18.31,0-28.57-10.13T76.59,407.06q0-8.79,6.59-23.31t14.4-22.83q32.48-33.69,58.6-57.74t37.35-31.62a215.32,215.32,0,0,0,33.33-28.44,113.19,113.19,0,0,0,20.26-29.29q7-15,7-29.42a53.06,53.06,0,0,0-7.45-28,51.66,51.66,0,0,0-20.26-19.16,58.49,58.49,0,0,0-28-6.84q-32,0-50.29,28.08-2.44,3.66-8.18,20T127,203.69q-7.2,8.79-21.12,8.79-12.21,0-20.26-8t-8.06-22q0-16.84,7.57-35.15a100.87,100.87,0,0,1,22.59-33.21q15-14.88,38.08-24t54.08-9.16q37.35,0,63.72,11.72a96,96,0,0,1,30,21.48A100.84,100.84,0,0,1,321,182.94q0,30.27-15,55.06t-30.64,38.81q-15.63,14-52.37,44.07t-50.41,46.63A139.23,139.23,0,0,0,160.57,383.38Z" transform="translate(-76.59 -80.89)"/></svg>