<svg id="Livello_1" data-name="Livello 1" xmlns="http://www.w3.org/2000/svg" viewBox="0 0 251.46 361.08"><defs><style>.cls-1{fill:#71250d;}</style></defs><path class="cls-1" d="M280.45,143.39h-116l-13.92,79.1q34.66-18.56,64-18.55a109.49,109.49,0,0,1,43.82,8.79,111.85,111.85,0,0,1,59.94,61,118.22,118.22,0,0,1,8.79,45.66q0,35.4-15.87,64.45T265.43,430q-29.91,17.08-69,17.09-43.71,0-70.92-16.11T87,394q-11.34-20.88-11.35-36.5,0-9.53,7.94-18.06a26,26,0,0,1,19.89-8.55q20.52,0,30.52,23.68,9.76,21.74,26.37,33.82a61.58,61.58,0,0,0,37.11,12.08q18.8,0,33-9.76t21.85-26.86q7.68-17.09,7.69-38.82,0-23.43-8.3-40t-22.22-24.78a60.11,60.11,0,0,0-31-8.18q-21,0-30,5.13t-26,17.94q-17,12.82-27.95,12.82a30.21,30.21,0,0,1-21.24-8.67q-9.28-8.65-9.28-19.65,0-1.22,2.69-16.6l20.51-116.94q3.4-21,12.69-30.52T150.07,86H279q38.08,0,38.09,29.05,0,12.71-9.28,20.51T280.45,143.39Z" transform="translate(-75.61 -86.02)"/></svg>