<svg xmlns="http://www.w3.org/2000/svg" viewBox="0 0 324.5 405.44"><defs><style>.cls-1{fill:#dd0b15;stroke:#dd0b15;stroke-linejoin:round;stroke-width:9px;}.cls-1,.cls-2{stroke-linecap:round;}.cls-2{fill:#fff;stroke:#1e1f1c;stroke-width:30px;}.cls-2,.cls-3,.cls-4,.cls-6{stroke-miterlimit:10;}.cls-3,.cls-4{fill:#1e1e1c;}.cls-3,.cls-4,.cls-5,.cls-6{stroke:#1e1e1c;}.cls-3{stroke-width:10px;}.cls-4,.cls-6{stroke-width:0.25px;}.cls-5,.cls-6{fill:#6a6a6a;}.cls-5{stroke-miterlimit:10;stroke-width:0.25px;}</style></defs><g id="Livello_2" data-name="Livello 2"><path class="cls-1" d="M527.74,208.26,230.27,78.16A3.77,3.77,0,0,0,225,81.61V273.37a3.76,3.76,0,0,0,4.53,3.69L527,215.4A3.77,3.77,0,0,0,527.74,208.26Z" transform="translate(-210 -70.86)"/></g><g id="Livello_1" data-name="Livello 1"><line class="cls-2" x1="15" y1="390.44" x2="15" y2="15"/></g><g id="Livello_3" data-name="Livello 3"><path class="cls-3" d="M371.22,190.2a36.06,36.06,0,0,1-72.12,0,40.6,40.6,0,0,1,3.51-15.15A37.26,37.26,0,0,1,310,164.33a35.82,35.82,0,0,1,25.14-10.2C352,154.57,371.22,168.69,371.22,190.2Z" transform="translate(-210 -70.86)"/><path class="cls-4" d="M295.35,172.71c-1-1.55-3-4.83-1.66-8,1.46-3.44,6.12-4.59,9.31-4.31,5.18.47,10.62,5.09,10.28,10.75-.22,3.48-2.63,7.18-6.18,8.21C300.77,181.24,295.62,173.15,295.35,172.71Z" transform="translate(-210 -70.86)"/><path class="cls-4" d="M317.77,151.1c.3-1.8.94-5.6,4-7.07,3.36-1.63,7.63.58,9.83,2.91,3.6,3.76,4.64,10.83.65,14.85-2.46,2.48-6.71,3.67-10.05,2.11C316.22,161.09,317.69,151.6,317.77,151.1Z" transform="translate(-210 -70.86)"/><path class="cls-4" d="M349,149.13c1.42-1.15,4.42-3.58,7.67-2.66,3.6,1,5.34,5.49,5.45,8.68.21,5.2-3.7,11.19-9.34,11.56-3.48.23-7.46-1.69-8.93-5.09C341.22,155.59,348.58,149.45,349,149.13Z" transform="translate(-210 -70.86)"/><path class="cls-4" d="M370.65,167.78c1.81-.19,5.65-.6,7.88,1.94,2.47,2.8,1.49,7.51-.14,10.25-2.65,4.47-9.19,7.38-14.13,4.62-3.05-1.7-5.34-5.47-4.72-9.11C360.61,169,370.14,167.83,370.65,167.78Z" transform="translate(-210 -70.86)"/><path class="cls-4" d="M375.82,195.07c1.5,1,4.66,3.25,4.69,6.63,0,3.74-3.8,6.65-6.83,7.65-4.94,1.64-11.77-.45-13.7-5.77-1.18-3.27-.45-7.63,2.4-10C367.46,189.39,375.41,194.78,375.82,195.07Z" transform="translate(-210 -70.86)"/><path class="cls-4" d="M365.51,220.68c.52,1.75,1.63,5.45-.44,8.11-2.3,3-7.1,2.86-10.1,1.77-4.89-1.78-9-7.66-7.17-13,1.09-3.31,4.38-6.26,8.07-6.34C362.46,211.05,365.36,220.2,365.51,220.68Z" transform="translate(-210 -70.86)"/><path class="cls-4" d="M338.6,231.13c-.62,1.71-1.93,5.34-5.19,6.24-3.6,1-7.4-1.94-9.16-4.61-2.86-4.36-2.61-11.49,2-14.73,2.86-2,7.26-2.41,10.26-.27C341.92,221.58,338.78,230.65,338.6,231.13Z" transform="translate(-210 -70.86)"/><path class="cls-4" d="M308.84,224.76c-1.74.55-5.42,1.69-8.11-.36-3-2.27-2.91-7.07-1.86-10.08,1.74-4.91,7.58-9,13-7.27,3.32,1.09,6.31,4.33,6.42,8C318.45,221.64,309.33,224.61,308.84,224.76Z" transform="translate(-210 -70.86)"/><path class="cls-4" d="M295.12,201.85c-1.82-.26-5.62-.83-7.15-3.84-1.7-3.33.42-7.63,2.68-9.89,3.69-3.68,10.74-4.86,14.84-1,2.54,2.4,3.81,6.62,2.32,10C305.14,203.18,295.63,201.91,295.12,201.85Z" transform="translate(-210 -70.86)"/><ellipse class="cls-5" cx="348.8" cy="171.65" rx="7.05" ry="8.01" transform="translate(-184.25 317.04) rotate(-60)"/><circle class="cls-6" cx="149.59" cy="111.16" r="2.35"/></g></svg>