<svg id="Livello_1" data-name="Livello 1" xmlns="http://www.w3.org/2000/svg" viewBox="0 0 250 365.72"><defs><style>.cls-1{fill:#e52521;}</style></defs><path class="cls-1" d="M186,224.93q22.47,0,38.7-13.18t16.23-37.84A45.23,45.23,0,0,0,228,141.56Q215,128,193,128q-14.89,0-24.53,4.15a39.46,39.46,0,0,0-15.26,11,82.31,82.31,0,0,0-10.62,17.57q-5,10.75-9.16,20.27-2.44,5.13-8.79,8A34.47,34.47,0,0,1,110,192q-9.78,0-18-7.93t-8.18-21.12q0-12.69,7.69-26.73t22.46-26.73q14.77-12.7,36.75-20.39t49.07-7.69q23.67,0,43.21,6.47A101,101,0,0,1,277,106.53a80.73,80.73,0,0,1,21.73,28.32,82.81,82.81,0,0,1,7.32,34.66q0,24.42-10.62,41.87t-30.4,34.06a134.67,134.67,0,0,1,32.11,23.44,87.58,87.58,0,0,1,26.24,63.72,107.84,107.84,0,0,1-8.91,43,109.79,109.79,0,0,1-26.24,37A125.35,125.35,0,0,1,247.12,438q-23.81,9.15-52.61,9.15-29.3,0-52.49-10.5t-38.21-26.24q-15-15.75-22.71-32.59t-7.69-27.84q0-14.15,9.16-22.82t22.83-8.67a24.23,24.23,0,0,1,13.18,4q6.35,4,8.3,9.64,12.69,33.94,27.22,50.42T195,399a61.4,61.4,0,0,0,29.17-7.45,60.73,60.73,0,0,0,23.19-22.1q9.16-14.64,9.16-33.93,0-28.56-15.63-44.8t-43.45-16.24q-4.89,0-15.14,1t-13.18,1q-13.44,0-20.75-6.72T141,251.06a23.26,23.26,0,0,1,8.79-18.92q8.79-7.2,26.12-7.21Z" transform="translate(-73.41 -81.38)"/></svg>