<svg id="Livello_1" data-name="Livello 1" xmlns="http://www.w3.org/2000/svg" viewBox="0 0 281.98 368.65"><defs><style>.cls-1{fill:#222752;}</style></defs><path class="cls-1" d="M224.05,410V364.58H101.49q-23.19,0-34.79-10.5T55.1,325.52a27.67,27.67,0,0,1,1.71-9.4,48.83,48.83,0,0,1,5.13-10Q65.36,300.86,69,296t9-12l129.4-173.1q12.69-17.08,20.87-24.78A27.65,27.65,0,0,1,248,78.45q37.11,0,37.11,42.48v189h10.5q18.8,0,30.15,5.13t11.36,22.46q0,14.16-9.28,20.63T300,364.58h-14.9V410q0,18.81-8.3,28t-22.21,9.15q-13.68,0-22.1-9.4T224.05,410Zm-105-100.1h105V168.05Z" transform="translate(-55.1 -78.45)"/></svg>