<svg id="Livello_1" data-name="Livello 1" xmlns="http://www.w3.org/2000/svg" viewBox="0 0 255.62 366.21"><defs><style>.cls-1{fill:#00716e;}</style></defs><path class="cls-1" d="M139.58,247.39q16.59-19.77,36.13-29.29t43.7-9.52a105.18,105.18,0,0,1,42.85,8.66,103.08,103.08,0,0,1,34.42,24.66,112.58,112.58,0,0,1,22.83,37.72A129.63,129.63,0,0,1,327.56,325q0,34.43-15.74,62.5a112,112,0,0,1-43.95,43.82Q239.67,447.1,204,447.1q-41,0-70.8-20T87.7,367.88Q72,328.69,72,272.05q0-46.14,9.52-82.52t27.34-60.3Q126.63,105.31,152,93.1t57.86-12.21q31.25,0,55.05,12.21t35.89,30.27q12.09,18.07,12.09,34.67,0,10-7.57,18.19a25.15,25.15,0,0,1-19.29,8.18,31.48,31.48,0,0,1-19-6.47A37.34,37.34,0,0,1,254.08,160a51.3,51.3,0,0,0-17.82-23.56,46.77,46.77,0,0,0-28.32-8.91q-12.94,0-25.76,7.45a67,67,0,0,0-21.61,20.14Q142.75,181,139.58,247.39ZM205.49,399q24.66,0,40.78-20.15T262.38,326q0-22.22-7.57-38.21t-20.75-24.41A52.86,52.86,0,0,0,205,255,56.5,56.5,0,0,0,176.08,263a59.63,59.63,0,0,0-22.22,23.31q-8.43,15.27-8.42,35.77,0,33,17.09,54.93T205.49,399Z" transform="translate(-71.95 -80.89)"/></svg>