<svg id="Livello_1" data-name="Livello 1" xmlns="http://www.w3.org/2000/svg" viewBox="0 0 253.91 366.21"><defs><style>.cls-1{fill:#504f4f;}</style></defs><path class="cls-1" d="M82.45,173.91a86.27,86.27,0,0,1,13.3-46q13.31-21.61,39.07-34.55T195,80.4q29,0,51,7.57t36.62,20.87a85.53,85.53,0,0,1,21.73,30,90.22,90.22,0,0,1,7.08,35.53q0,23.92-12.33,42.72t-36.74,30.76q20.75,8.06,34.42,21.12a86.08,86.08,0,0,1,20.63,30.27,101.11,101.11,0,0,1,7,38.21q0,30.76-14.89,55.79t-43.7,39.18Q237,446.61,197.93,446.61q-40.53,0-69.34-14.16T85.13,393.51Q70.49,368.75,70.48,338q0-65.67,62-90.09Q82.45,224.45,82.45,173.91ZM257.5,335.53q0-19-7.82-33.2a53.3,53.3,0,0,0-22-21.73A66.21,66.21,0,0,0,196,273q-24.9,0-41.75,16.6T137.38,336q0,19,7.93,33.57a56.87,56.87,0,0,0,21.61,22.46,62.74,62.74,0,0,0,61.28-.12,56.77,56.77,0,0,0,21.48-22.71Q257.5,354.58,257.5,335.53Zm-61-208.5q-23,0-37,14.29t-14,36.74q0,20.74,14.4,34.54T197,226.4a57,57,0,0,0,20.87-3.66,48.13,48.13,0,0,0,16.12-10.14,44.6,44.6,0,0,0,10.37-15.38,54.82,54.82,0,0,0-2.81-45.53,46.78,46.78,0,0,0-18.18-18.07A53.92,53.92,0,0,0,196.46,127Z" transform="translate(-70.48 -80.4)"/></svg>