<svg id="Livello_1" data-name="Livello 1" xmlns="http://www.w3.org/2000/svg" viewBox="0 0 256.65 259.25"><defs><style>.cls-1,.cls-2{fill:#1d1d1b;}.cls-1,.cls-2,.cls-3{stroke:#1d1d1b;stroke-miterlimit:10;}.cls-1{stroke-width:10px;}.cls-2,.cls-3{stroke-width:0.25px;}.cls-3{fill:#696969;}</style></defs><title>mine</title><path class="cls-1" d="M479.59,515.92a99.27,99.27,0,0,1-198.53,0c0-21.24,9.68-41.69,9.68-41.69a102.62,102.62,0,0,1,20.4-29.49c18.76-18.54,45.52-28.69,69.18-28.09C426.65,417.85,479.59,456.73,479.59,515.92Z" transform="translate(-248.62 -387.19)"/><path class="cls-2" d="M270.76,467.79c-2.63-4.27-8.2-13.3-4.57-21.87,4-9.47,16.85-12.64,25.61-11.86,14.27,1.27,29.25,14,28.29,29.57-.6,9.59-7.22,19.78-17,22.6C285.67,491.28,271.5,469,270.76,467.79Z" transform="translate(-248.62 -387.19)"/><path class="cls-2" d="M332.46,408.31c.84-4.95,2.6-15.41,11-19.46,9.26-4.48,21,1.61,27.07,8,9.9,10.36,12.76,29.83,1.78,40.89-6.76,6.81-18.46,10.11-27.66,5.8C328.19,435.8,332.23,409.7,332.46,408.31Z" transform="translate(-248.62 -387.19)"/><path class="cls-2" d="M418.35,402.89c3.9-3.16,12.15-9.84,21.11-7.33,9.9,2.78,14.68,15.11,15,23.9.56,14.31-10.19,30.8-25.73,31.82-9.58.63-20.53-4.64-24.58-14C397,420.67,417.26,403.77,418.35,402.89Z" transform="translate(-248.62 -387.19)"/><path class="cls-2" d="M478,454.22c5-.53,15.55-1.65,21.7,5.33,6.8,7.72,4.1,20.67-.38,28.22-7.31,12.32-25.3,20.32-38.9,12.72-8.38-4.68-14.71-15.05-13-25.08C450.38,457.51,476.61,454.37,478,454.22Z" transform="translate(-248.62 -387.19)"/><path class="cls-2" d="M492.25,529.33c4.12,2.87,12.82,8.95,12.89,18.25.08,10.29-10.44,18.3-18.78,21.06-13.6,4.51-32.42-1.24-37.72-15.89-3.26-9-1.23-21,6.6-27.48C469.23,513.71,491.1,528.53,492.25,529.33Z" transform="translate(-248.62 -387.19)"/><path class="cls-2" d="M463.85,599.84c1.45,4.81,4.51,15-1.2,22.31-6.32,8.12-19.54,7.88-27.8,4.88-13.47-4.9-24.66-21.08-19.73-35.86,3-9.11,12.06-17.25,22.22-17.47C455.48,573.31,463.44,598.5,463.85,599.84Z" transform="translate(-248.62 -387.19)"/><path class="cls-2" d="M389.8,628.58c-1.71,4.72-5.31,14.7-14.28,17.18-9.92,2.75-20.38-5.34-25.21-12.68-7.88-12-7.21-31.63,5.57-40.54,7.87-5.49,20-6.64,28.25-.76C398.93,602.3,390.28,627.26,389.8,628.58Z" transform="translate(-248.62 -387.19)"/><path class="cls-2" d="M307.88,611.07c-4.79,1.49-14.92,4.64-22.32-1-8.17-6.25-8-19.47-5.12-27.76,4.78-13.51,20.86-24.85,35.68-20,9.14,3,17.36,11.91,17.67,22.07C334.34,602.47,309.22,610.65,307.88,611.07Z" transform="translate(-248.62 -387.19)"/><path class="cls-2" d="M270.12,548c-5-.73-15.46-2.28-19.69-10.57-4.67-9.16,1.17-21,7.39-27.23,10.15-10.12,29.56-13.38,40.84-2.64,7,6.61,10.5,18.24,6.39,27.53C297.69,551.66,271.51,548.17,270.12,548Z" transform="translate(-248.62 -387.19)"/><ellipse class="cls-3" cx="417.88" cy="464.88" rx="19.41" ry="22.06" transform="translate(-442.28 207.15) rotate(-60)"/><circle class="cls-3" cx="198.94" cy="106.22" r="6.47"/></svg>